<?xml version="1.0" encoding="UTF-8"?>
<svg width="22px" height="24px" viewBox="0 0 22 24" version="1.1" xmlns="http://www.w3.org/2000/svg" xmlns:xlink="http://www.w3.org/1999/xlink">
    <title>box</title>
    <g id="box" stroke="none" stroke-width="1" fill="none" fill-rule="evenodd" stroke-linecap="round" stroke-linejoin="round">
        <g transform="translate(1, 1)" id="Path" stroke="#FFFFFF" stroke-width="1.5">
            <path d="M10.8900487,0.202178695 L18.8900487,4.2021787 C19.5697064,4.5399087 19.999646,5.23323472 20.0000487,5.9921787 L20.0000487,15.5221787 C19.999646,16.2811227 19.5697064,16.9744487 18.8900487,17.3121787 L10.8900487,21.3121787 C10.3266808,21.5940882 9.66341663,21.5940882 9.1000487,21.3121787 L1.1000487,17.3121787 C0.421041103,16.9700476 -0.00524263897,16.2724924 0,15.5121787 L0,5.9921787 C0.000451422486,5.23323472 0.430391019,4.5399087 1.1100487,4.2021787 L9.1100487,0.202178695 C9.67276314,-0.0673928985 10.3273343,-0.0673928985 10.8900487,0.202178695 Z"></path>
            <polyline points="0.320048697 4.9121787 10.0000487 9.7521787 19.6800487 4.9121787"></polyline>
            <line x1="10.0000487" y1="21.5121787" x2="10.0000487" y2="9.7521787"></line>
        </g>
    </g>
</svg>