<svg id="LOGOS" xmlns="http://www.w3.org/2000/svg" viewBox="0 0 162 162"><defs><style>.cls-1{fill:#e03875;}</style></defs><path class="cls-1" d="M81.53,137.7a54.78,54.78,0,1,1,37.06-95.08h0l-13,13.6h0a36,36,0,1,0,0,53.43h0l13,13.6h0A54.63,54.63,0,0,1,81.53,137.7Z"/><path class="cls-1" d="M125.61,110.3a4.49,4.49,0,1,1,4.49-4.49A4.5,4.5,0,0,1,125.61,110.3Z"/><path class="cls-1" d="M81.18,94.79A11.87,11.87,0,1,1,93,82.93,11.88,11.88,0,0,1,81.18,94.79Z"/><path class="cls-1" d="M130.76,95a4.49,4.49,0,1,1,4.49-4.49A4.5,4.5,0,0,1,130.76,95Z"/><path class="cls-1" d="M117.41,94.44A4.49,4.49,0,1,1,121.9,90,4.49,4.49,0,0,1,117.41,94.44Z"/><path class="cls-1" d="M130.76,79.87a4.49,4.49,0,1,1,4.49-4.49A4.5,4.5,0,0,1,130.76,79.87Z"/><path class="cls-1" d="M117.41,80.38a4.49,4.49,0,1,1,4.49-4.49A4.49,4.49,0,0,1,117.41,80.38Z"/><path class="cls-1" d="M125.87,64.77a4.49,4.49,0,1,1,4.48-4.49A4.49,4.49,0,0,1,125.87,64.77Z"/></svg>