<svg id="LOGOS" xmlns="http://www.w3.org/2000/svg" viewBox="0 0 162 162"><defs><style>.cls-1{fill:#0e67ed;}.cls-2{fill:#0850c5;}</style></defs><polygon class="cls-1" points="119.77 26.55 95.68 40.46 95.68 49 81 83.52 66.32 49 66.32 40.46 42.23 26.55 27.58 35.02 27.58 44.85 27.58 44.85 60.21 124.77 81 136.77 81 136.77 101.79 124.77 134.42 44.85 134.42 44.85 134.42 35.02 119.77 26.55"/><polygon class="cls-2" points="134.42 35.02 110.33 48.92 110.33 57.47 90.77 101.19 81 106.83 81 136.77 101.79 124.77 134.42 44.85 134.42 44.85 134.42 35.02"/><polygon class="cls-2" points="66.32 49 66.32 40.46 51.66 48.92 51.66 57.47 71.23 101.19 81 95.55 81 83.52 66.32 49"/></svg>