<svg xmlns="http://www.w3.org/2000/svg" xmlns:xlink="http://www.w3.org/1999/xlink" viewBox="0 0 1920 1080"><defs><style>.cls-1,.cls-3,.cls-4,.cls-5,.cls-6{fill:none;}.cls-2{clip-path:url(#clip-path);}.cls-3,.cls-4,.cls-5,.cls-6{stroke-miterlimit:10;stroke-width:1.5px;}.cls-3{stroke:url(#linear-gradient);}.cls-4{stroke:url(#linear-gradient-2);}.cls-5{stroke:url(#linear-gradient-3);}.cls-6{opacity:0.7;stroke:url(#linear-gradient-4);}</style><clipPath id="clip-path"><rect class="cls-1" y="1.25" width="1920" height="1080.3"/></clipPath><linearGradient id="linear-gradient" x1="-17461.17" y1="-2540.42" x2="-17278.09" y2="-2223.31" gradientTransform="matrix(-1, 0, 0, 1, -15536.96, 3360.03)" gradientUnits="userSpaceOnUse"><stop offset="0.16" stop-color="#fff" stop-opacity="0"/><stop offset="0.74" stop-color="#fff" stop-opacity="0.9"/></linearGradient><linearGradient id="linear-gradient-2" x1="-16901.51" y1="700.4" x2="-15836.19" y2="-1144.78" gradientTransform="translate(-15536.96 248.03) rotate(180)" gradientUnits="userSpaceOnUse"><stop offset="0.48" stop-color="#fff" stop-opacity="0"/><stop offset="0.56" stop-color="#fff" stop-opacity="0.02"/><stop offset="0.64" stop-color="#fff" stop-opacity="0.07"/><stop offset="0.73" stop-color="#fff" stop-opacity="0.16"/><stop offset="0.83" stop-color="#fff" stop-opacity="0.29"/><stop offset="0.92" stop-color="#fff" stop-opacity="0.45"/><stop offset="1" stop-color="#fff" stop-opacity="0.6"/></linearGradient><linearGradient id="linear-gradient-3" x1="-16665.51" y1="-1179.41" x2="-15658.03" y2="565.6" gradientTransform="translate(-15536.96 248.03) rotate(180)" gradientUnits="userSpaceOnUse"><stop offset="0.02" stop-color="#fff" stop-opacity="0.5"/><stop offset="0.03" stop-color="#fff" stop-opacity="0.49"/><stop offset="0.11" stop-color="#fff" stop-opacity="0.32"/><stop offset="0.2" stop-color="#fff" stop-opacity="0.18"/><stop offset="0.28" stop-color="#fff" stop-opacity="0.08"/><stop offset="0.35" stop-color="#fff" stop-opacity="0.02"/><stop offset="0.41" stop-color="#fff" stop-opacity="0"/></linearGradient><linearGradient id="linear-gradient-4" x1="1054.66" y1="-293.49" x2="1054.66" y2="711.33" gradientUnits="userSpaceOnUse"><stop offset="0.25" stop-color="#fff"/><stop offset="0.29" stop-color="#fff" stop-opacity="0.84"/><stop offset="0.33" stop-color="#fff" stop-opacity="0.65"/><stop offset="0.38" stop-color="#fff" stop-opacity="0.5"/><stop offset="0.42" stop-color="#fff" stop-opacity="0.39"/><stop offset="0.45" stop-color="#fff" stop-opacity="0.32"/><stop offset="0.48" stop-color="#fff" stop-opacity="0.3"/><stop offset="0.57" stop-color="#fff" stop-opacity="0.18"/><stop offset="0.66" stop-color="#fff" stop-opacity="0.08"/><stop offset="0.74" stop-color="#fff" stop-opacity="0.02"/><stop offset="0.81" stop-color="#fff" stop-opacity="0"/></linearGradient></defs><g id="Pattern"><g class="cls-2"><rect width="1920" height="1080"/><path class="cls-3" d="M1923.73,1094.92l-31.82,18.37m31.82-36.71-63.59,36.71m63.59-55.06-95.36,55.06m95.36-73.4-127.13,73.4m127.13-91.74-158.9,91.74m158.9-110.09-190.67,110.09m190.67-128.43-222.44,128.43m222.44-146.77-237.12,136.9m0-18.34,237.12-136.9m0-18.35-237.12,136.9m0-18.34,237.12-136.9m0-18.34-237.12,136.9m0-18.34L1923.73,874.8m0-18.34-237.12,136.9m0-18.34,237.12-136.9m0-18.35L1686.61,956.68"/><path class="cls-4" d="M1500.92-134.74-198.85,846.62M1786.86-134.74-198.85,1011.71M1373.83-134.74l-1572.68,908m1668-908-1668,963m1636.23-963L-198.85,809.93M1278.52-134.74l-1477.37,853m1445.6-853L-198.85,699.87M1342.06-134.74-198.85,754.9M1755.09-134.74-198.85,993.36M1310.29-134.74-198.85,736.56M1628-134.74-198.85,920M1659.77-134.74-198.85,938.33M1215-134.74-198.85,681.53M1723.32-134.74-198.85,975M1691.54-134.74-198.85,956.68M1532.69-134.74-198.85,865m1763.31-999.7L-198.85,883.3m1795.08-1018L-198.85,901.65M1405.6-134.74-198.85,791.59M1923.73,61.38l-1822,1051.91m1822-1088.6L38.23,1113.29M1923.73,79.72,133.54,1113.29M1923.73,43,70,1113.29M1923.73,98.06,165.31,1113.29m1758.42-960.2L260.62,1113.29M1923.73,116.41,197.08,1113.29M1923.73,134.75,228.85,1113.29M1923.73-85.37-152.4,1113.29m2066.34-1248L-198.85,1085.08M1923.73-103.71l-2107.9,1217M1923.73-122-198.85,1103.42M1923.73,6.35,6.45,1113.29M1923.73-67-120.63,1113.29m2044.36-1162-2012.59,1162M1923.73-12l-1949,1125.28M1923.73-30.34-57.09,1113.29m1875.72-1248L-198.85,1030.05M1850.4-134.74-198.85,1048.39m0,18.34,2081-1201.47"/><path class="cls-5" d="M-199.31-3.76,1686.61,1085.08m0-128.4L-199.31-132.16M1686.61,993.36-199.31-95.47m0-18.35L1686.61,975m0,55L-199.31-58.79m0,18.35L1686.61,1048.39M-199.31-77.13,1686.61,1011.71m0,55L-199.31-22.1M1227.14,1113.29-199.31,289.73m0-18.34,1458.22,841.9m31.77,0L-199.31,253m0,128.41,1267.59,731.84m285.94,0L-199.31,216.36m1299.36,896.93L-199.31,363.1m0-55,1394.68,805.22M-199.31,344.76l1331.13,768.53M-199.31,198,1386,1113.29m-222.4,0L-199.31,326.42m0-91.72,1521.76,878.59M-199.31,88,1576.62,1113.29m31.77,0L-199.31,69.61m0-18.34,1839.47,1062m31.77,0L-199.31,32.93m0-18.35L1686.61,1103.42M-199.31,161.33l1648.84,952m-31.77,0L-199.31,179.67m1744.16,933.62L-199.31,106.3m0,18.34,1712.39,988.65m-31.78,0L-199.31,143m0,385.2,1013.42,585.1M-199.31,454.82,941.2,1113.29m31.77,0L-199.31,436.47M845.88,1113.29-199.31,509.85m0-18.35,1077,621.79m31.78,0L-199.31,473.16m0-55,1204.05,695.16m-222.4,0L-199.31,546.53m0,18.35,949.88,548.41m285.94,0L-199.31,399.79"/><path class="cls-6" d="M1043.4-292.84l880.33,508.26M1107-292.84l816.78,471.57M852.78-292.84l1071,618.32m-785-618.32,785,453.23M1202.26-292.84,1923.73,123.7M916.32-292.84,1923.73,288.79M884.55-292.84l1039.18,600m-943.87-600L1923.73,252.1M948.09-292.84l975.64,563.29m-912.1-563.29,912.1,526.6m-753.24-526.6,753.24,434.89M1234-292.84l689.7,398.2m-626.16-398.2L1923.73,68.67M1265.8-292.84,1923.73,87m0-55L1361.12-292.84m-31.78,0L1923.73,50.33M1075.18-292.84l848.55,489.92M344.44-292.84,1923.73,619M280.9-292.84,1923.73,655.65M312.67-292.84,1923.73,637.31M408-292.84,1923.73,582.28m-1484-875.12,1484,856.78M376.21-292.84,1923.73,600.62M1392.89-292.84,1923.73,13.65M217.36-292.84,1923.73,692.34M185.59-292.84,1923.73,710.68M249.13-292.84,1923.73,674M566.84-292.84l1356.89,783.4M693.92-292.84l1229.81,710m-1198-710,1198,691.69M789.24-292.84l1134.49,655m-1261.58-655L1923.73,435.54M757.47-292.84,1923.73,380.51M471.53-292.84l1452.2,838.43M535.07-292.84,1923.73,508.91M503.3-292.84,1923.73,527.25M630.38-292.84,1923.73,453.88M821-292.84,1923.73,343.82M598.61-292.84,1923.73,472.22"/></g></g></svg>